<svg width="27" height="26" viewBox="0 0 27 26" fill="none" xmlns="http://www.w3.org/2000/svg">
<path fill-rule="evenodd" clip-rule="evenodd" d="M14.1902 13.1492C14.3035 13.0801 14.3996 12.9353 14.4771 12.7745C15.4971 13.1913 16.2139 14.1764 16.2139 15.3253C16.2139 16.8514 14.9489 18.0886 13.3884 18.0886C12.7479 18.0886 12.1571 17.8801 11.6832 17.5288C11.5277 17.4552 11.3998 17.3844 11.2952 17.3266C11.1328 17.2368 11.0264 17.178 10.9597 17.1872C10.7648 17.214 10.8214 17.3933 10.8728 17.5562C10.9077 17.6668 10.9403 17.7699 10.8899 17.8124C10.8372 17.8569 10.6665 17.6942 10.4671 17.5041C10.1956 17.2452 9.87088 16.9356 9.71775 17.0286C9.59666 17.1021 9.71422 17.3016 9.85812 17.5458L9.86879 17.5639C9.92958 17.6671 10 17.7723 10.0643 17.8682C10.195 18.0631 10.3002 18.2202 10.2476 18.2468C10.1839 18.2789 9.7404 17.9795 9.36665 17.5639C9.22239 17.4035 9.08267 17.2297 8.95281 17.0681V17.0681C8.66857 16.7144 8.43176 16.4198 8.29883 16.4547C8.13891 16.4967 8.25988 16.8265 8.43763 17.1439C8.52075 17.2923 8.61852 17.4435 8.70317 17.5744V17.5744C8.83483 17.7779 8.93475 17.9324 8.89852 17.9514C8.84961 17.9769 8.41932 17.5573 8.12706 17.0286C7.95347 16.7145 7.80771 16.3674 7.68971 16.0864C7.56173 15.7817 7.46641 15.5547 7.40364 15.5319C7.18555 15.4525 7.18555 15.8972 7.27302 16.5389C7.28443 16.6227 7.30142 16.7105 7.32234 16.7999C8.1706 19.5445 10.7764 21.5428 13.8593 21.5428C17.6304 21.5428 20.6874 18.5529 20.6874 14.8647C20.6874 11.3543 17.9182 8.47654 14.3997 8.20712C14.4041 8.04176 14.4905 7.71382 14.4905 7.71382C14.4905 7.71382 15.1116 6.21098 15.1444 5.88984C15.1466 5.86853 15.1492 5.84537 15.1519 5.8207C15.1906 5.47371 15.2626 4.82855 14.7076 4.82855C14.4112 4.82855 14.2733 5.04906 14.1157 5.30125V5.30125C14.0552 5.39807 13.9917 5.49956 13.9153 5.59503C13.3646 6.28268 12.4386 7.14142 11.9136 7.59892C10.8039 8.56589 9.7151 9.36061 9.08009 9.8241L9.08006 9.82413C8.79125 10.0349 8.59632 10.1772 8.53599 10.236C8.08138 10.6792 6.45134 13.6194 6.45134 13.6194C6.45134 13.6194 5.9242 14.5627 6.11157 14.7541C6.29893 14.9454 6.75077 14.9015 6.75077 14.9015C6.75077 14.9015 12.8208 13.509 13.3643 13.3992C13.5106 13.3696 13.6139 13.3525 13.6932 13.3394C13.9085 13.3039 13.9471 13.2975 14.1902 13.1492ZM9.89844 11.3597C9.57261 11.6694 9.03223 12.4086 9.03223 12.4086C9.03223 12.4086 10.0365 12.4705 10.5896 11.9447C11.1428 11.4189 11.016 10.5229 11.016 10.5229C11.016 10.5229 10.2242 11.05 9.89844 11.3597Z" fill="#217AF8"/>
</svg>
