<svg width="26" height="26" viewBox="0 0 26 26" fill="none" xmlns="http://www.w3.org/2000/svg">
<path fill-rule="evenodd" clip-rule="evenodd" d="M18.6514 17.9107C18.6514 17.9107 16.7778 19.4134 13.0494 18.7915C10.2207 18.3197 8.71206 15.2015 8.71206 13.5255C8.71206 9.55161 11.6532 8.64729 13.6417 8.64729C15.6301 8.64729 16.9272 10.5859 16.9272 12.0869C16.9272 13.5878 15.8656 14.9007 14.2135 14.9007C12.5615 14.9007 12.0722 13.7409 12.0722 12.6745C12.0722 11.6082 12.9349 11.2326 13.7217 11.2326C14.5085 11.2326 14.7779 11.9043 14.7779 12.4816C14.7779 13.0589 14.3299 13.2657 13.9563 13.2657C13.5827 13.2657 13.5458 13.0772 13.4028 12.8791C13.2598 12.681 13.5851 11.9312 13.0494 11.9312C12.5137 11.9312 12.4138 12.7932 12.4138 12.7932C12.4138 12.7932 12.6091 14.4571 14.2135 14.4284C15.818 14.3996 16.5791 13.1593 16.3579 11.9312C16.1367 10.7032 14.9449 9.39827 12.8532 9.66195C10.7616 9.92564 9.90758 12.0391 10.284 14.2976C10.6604 16.5561 13.3662 17.8648 15.4935 17.394C17.621 16.9231 19.7398 15.383 19.7398 11.4781C19.7398 7.57325 16.3579 5.22606 12.3253 5.61289C8.29267 5.99971 5.78941 9.52529 5.94964 13.7613C6.10987 17.9974 10.1294 20.3045 13.5283 20.4234C16.9272 20.5423 19.0109 18.5748 19.0109 18.5748C19.0109 18.5748 19.4795 18.1569 19.2958 17.8306C19.1121 17.5043 18.6514 17.9107 18.6514 17.9107Z" fill="#FF7E76"/>
</svg>
